<svg width="46" height="46" viewBox="0 0 46 46" fill="none" xmlns="http://www.w3.org/2000/svg">
<path fill-rule="evenodd" clip-rule="evenodd" d="M13.6824 10.5631C13.6822 10.5522 13.682 10.5412 13.682 10.5301V8.31325C13.682 3.72197 17.8539 0 23 0C28.1463 0 32.318 3.72197 32.318 8.31325V10.5301C32.318 10.5412 32.3177 10.5522 32.3175 10.5631C35.5162 10.6488 37.4734 10.9566 38.9675 12.063C41.0379 13.5959 41.583 16.1906 42.6738 21.3801L44.5374 30.2476C46.071 37.5449 46.8376 41.1934 44.602 43.5967C42.3665 46 38.2057 46 29.8839 46H16.116C7.79434 46 3.63349 46 1.3979 43.5967C-0.83771 41.1934 -0.0709049 37.5449 1.46268 30.2476L3.32627 21.3801C4.41687 16.1906 4.96218 13.5959 7.03246 12.063C8.52668 10.9566 10.4838 10.6488 13.6824 10.5631ZM17.4092 8.31325C17.4092 5.55848 19.9122 3.3253 23 3.3253C26.0876 3.3253 28.5908 5.55848 28.5908 8.31325V10.5301C28.5908 10.5301 28.5908 10.5301 28.5908 10.5301C28.4037 10.5301 28.2136 10.5301 28.0203 10.5301H17.9796C17.7864 10.5301 17.5963 10.5301 17.4092 10.5302V8.31325Z" fill="#333333"/>
</svg>
