<svg width="234" height="83" viewBox="0 0 234 83" fill="none" xmlns="http://www.w3.org/2000/svg">
<g clip-path="url(#clip0_8_194)">
<path d="M9.31271 39.038C10.0474 39.038 10.6431 38.4424 10.6431 37.7077C10.6431 36.9729 10.0474 36.3773 9.31271 36.3773C8.57798 36.3773 7.98236 36.9729 7.98236 37.7077C7.98236 38.4424 8.57798 39.038 9.31271 39.038Z" fill="#F3F3F3"/>
<path d="M7.98238 44.3597C8.71711 44.3597 9.31273 43.7641 9.31273 43.0293C9.31273 42.2946 8.71711 41.699 7.98238 41.699C7.24765 41.699 6.65204 42.2946 6.65204 43.0293C6.65204 43.7641 7.24765 44.3597 7.98238 44.3597Z" fill="#F3F3F3"/>
<path d="M77.5621 41.1667C75.5665 38.2399 69.8459 36.9094 60.4 37.1755L32.1957 23.8716C31.5304 23.6055 30.8653 23.8716 30.4662 24.4037C30.2001 25.069 21.4195 38.3729 5.4547 29.0602C5.05558 28.9272 4.65646 28.9272 4.25734 29.0602C3.85822 29.1932 3.59209 29.5923 3.4591 29.9914C2.39473 35.8452 0.532124 45.557 0.133005 46.6214C1.72257e-05 47.0205 1.72257e-05 47.4196 0.133005 47.8188C0.399136 48.0849 0.798256 48.3509 1.19737 48.3509C5.05558 48.617 25.2775 50.0803 44.0361 50.0803C59.8679 50.0803 74.7683 49.016 77.8283 45.2909C77.9612 45.1579 78.0944 45.0248 78.0944 44.8918C78.2274 44.6258 78.7595 43.0293 77.5621 41.1667ZM3.05998 45.8232C3.72523 42.6302 5.05558 35.7122 5.72083 32.3861C18.6256 38.905 28.2045 32.2531 32.0627 26.9314L59.4688 39.8364C59.7349 39.9694 59.8679 39.9694 60.134 39.9694C71.7085 39.5703 74.6353 41.832 75.3005 42.7632C75.6997 43.1623 75.6997 43.5614 75.6997 43.8276C70.5111 48.75 29.2687 47.6856 3.05998 45.8232Z" fill="#F3F3F3"/>
<path d="M79.5577 45.5571L78.2273 42.4971C77.9612 41.965 77.4291 41.6989 76.897 41.6989C76.0988 41.6989 75.5667 42.231 75.5667 43.0292C75.5667 43.2953 75.5667 43.5613 75.6996 43.6944L76.897 46.4883C77.4291 47.9518 77.03 49.6812 75.8326 50.4795C73.4379 52.0759 67.4511 55.0028 54.1472 55.0028C35.7877 55.0028 8.91376 55.0028 2.66085 55.0028V47.0204C2.66085 46.2222 2.12874 45.69 1.3305 45.69C0.532263 45.69 0 46.2223 0 47.0205V56.3333C0 56.7324 0.132988 56.9985 0.399119 57.2645C0.66525 57.5305 0.931226 57.6636 1.33035 57.6636C1.33035 57.6636 33.2599 57.6636 54.4132 57.7966C67.7171 57.7966 74.3691 55.0028 77.5621 52.741C79.6908 51.1447 80.6221 48.2179 79.5577 45.5571Z" fill="#F3F3F3"/>
<path d="M60.267 37.3086C59.6017 37.1756 58.9366 37.7077 58.8035 38.373L57.207 48.0848C57.207 48.0848 57.207 48.2178 57.207 48.3509C57.207 49.1492 57.7391 49.6813 58.5374 49.6813C59.2026 49.6813 59.7347 49.1492 59.8677 48.4839L61.3312 38.7721C61.4643 38.1068 60.9322 37.4417 60.267 37.3086Z" fill="#F3F3F3"/>
<path d="M37.9163 24.5368C37.2511 24.1376 36.4528 24.4038 36.1868 25.0689L32.1956 31.7209C31.7965 32.3862 31.9295 33.1844 32.5948 33.5835C32.7278 33.7165 32.9939 33.7165 33.26 33.7165C33.6591 33.7165 34.1912 33.4504 34.4574 33.0512L38.4486 26.3992C38.7145 25.7341 38.5816 24.9359 37.9163 24.5368Z" fill="#F3F3F3"/>
<path d="M43.2378 27.1976C42.5726 26.7985 41.7743 27.0647 41.5084 27.7298L37.5172 34.3818C37.1181 35.047 37.2511 35.8453 37.9163 36.2444C38.0493 36.3774 38.3154 36.3774 38.5816 36.3774C38.9807 36.3774 39.5128 36.1113 39.7789 35.7121L43.7701 29.0601C44.0361 28.395 43.9031 27.5968 43.2378 27.1976Z" fill="#F3F3F3"/>
<path d="M48.5596 29.8584C47.8943 29.4593 47.0961 29.7254 46.8301 30.3905L42.8389 37.0426C42.4398 37.7078 42.5728 38.506 43.238 38.9052C43.371 39.0382 43.6371 39.0382 43.9033 39.0382C44.3024 39.0382 44.8345 38.772 45.1006 38.3729L49.0918 31.7209C49.3578 31.0558 49.2247 30.2575 48.5596 29.8584Z" fill="#F3F3F3"/>
<path d="M53.8811 32.5192C53.2158 32.1201 52.4176 32.3862 52.1516 33.0513L48.1604 39.7033C47.7613 40.3686 47.8943 41.1668 48.5596 41.5659C48.6925 41.6989 48.9587 41.6989 49.2248 41.6989C49.6239 41.6989 50.156 41.4328 50.4222 41.0337L54.4133 34.3816C54.6793 33.7165 54.5463 32.9183 53.8811 32.5192Z" fill="#F3F3F3"/>
<path d="M4.92242 28.9271C3.85805 28.7941 2.66069 27.9959 2.66069 26.5324C2.66069 25.7341 2.12858 25.202 1.33035 25.202C0.532107 25.202 0 25.7341 0 26.5324C0 29.0601 1.86261 31.0557 4.39031 31.5879C4.5233 31.5879 4.5233 31.5879 4.65644 31.5879C5.32169 31.5879 5.8538 31.0558 5.98679 30.5236C6.11978 29.7253 5.58767 29.0602 4.92242 28.9271Z" fill="#F3F3F3"/>
<path d="M56.2682 35.2945C55.6335 35.0414 54.872 35.2945 54.6183 35.927L53.6029 38.204C52.0799 41.6195 48.1456 43.264 44.7189 41.746L21.7471 31.879C21.1125 31.6259 20.351 31.879 20.0973 32.5115C19.8436 33.1441 20.0973 33.9031 20.7319 34.156L43.7036 44.023C44.8459 44.5289 46.115 44.782 47.3843 44.782C50.9378 44.782 54.3646 42.758 55.8876 39.2159L56.9029 36.9389C57.1565 36.3065 56.9026 35.5475 56.2682 35.2945Z" fill="#F3F3F3"/>
</g>
<path d="M8.055 80.767C6.325 80.767 4.995 80.407 4.065 79.687C3.145 78.957 2.595 77.827 2.415 76.297C2.385 75.927 2.465 75.647 2.655 75.457C2.855 75.257 3.135 75.157 3.495 75.157C3.855 75.157 4.12 75.247 4.29 75.427C4.47 75.607 4.585 75.877 4.635 76.237C4.755 77.117 5.07 77.727 5.58 78.067C6.1 78.397 6.925 78.562 8.055 78.562H12.375C13.715 78.562 14.63 78.317 15.12 77.827C15.62 77.327 15.87 76.422 15.87 75.112C15.87 73.782 15.615 72.867 15.105 72.367C14.605 71.857 13.695 71.602 12.375 71.602H8.535C6.685 71.602 5.315 71.157 4.425 70.267C3.545 69.377 3.105 68.012 3.105 66.172C3.105 64.332 3.54 62.972 4.41 62.092C5.29 61.212 6.655 60.772 8.505 60.772H12.285C13.905 60.772 15.15 61.117 16.02 61.807C16.9 62.487 17.43 63.542 17.61 64.972C17.65 65.342 17.57 65.627 17.37 65.827C17.18 66.017 16.9 66.112 16.53 66.112C16.18 66.112 15.915 66.022 15.735 65.842C15.555 65.652 15.445 65.382 15.405 65.032C15.285 64.262 14.985 63.727 14.505 63.427C14.035 63.127 13.295 62.977 12.285 62.977H8.505C7.265 62.977 6.42 63.207 5.97 63.667C5.53 64.117 5.31 64.952 5.31 66.172C5.31 67.392 5.535 68.237 5.985 68.707C6.445 69.167 7.295 69.397 8.535 69.397H12.375C14.315 69.397 15.75 69.862 16.68 70.792C17.61 71.722 18.075 73.162 18.075 75.112C18.075 77.052 17.61 78.482 16.68 79.402C15.75 80.312 14.315 80.767 12.375 80.767H8.055ZM24.6035 80.782C23.8635 80.782 23.4935 80.412 23.4935 79.672V61.882C23.4935 61.142 23.8635 60.772 24.6035 60.772C24.9835 60.772 25.3535 60.992 25.7135 61.432L37.9835 77.227H37.4435V61.882C37.4435 61.142 37.8135 60.772 38.5535 60.772C39.2835 60.772 39.6485 61.142 39.6485 61.882V79.672C39.6485 80.412 39.2835 80.782 38.5535 80.782C38.1535 80.782 37.7835 80.562 37.4435 80.122L25.1585 64.327H25.6985V79.672C25.6985 80.412 25.3335 80.782 24.6035 80.782ZM46.7813 80.782C46.0413 80.782 45.6713 80.412 45.6713 79.672V61.882C45.6713 61.142 46.0413 60.772 46.7813 60.772H57.7013C58.4413 60.772 58.8113 61.142 58.8113 61.882C58.8113 62.612 58.4413 62.977 57.7013 62.977H47.8763V69.577H54.1613C54.9013 69.577 55.2713 69.942 55.2713 70.672C55.2713 71.412 54.9013 71.782 54.1613 71.782H47.8763V78.577H57.7013C58.4413 78.577 58.8113 78.942 58.8113 79.672C58.8113 80.412 58.4413 80.782 57.7013 80.782H46.7813ZM62.1973 80.677C61.4973 80.397 61.2873 79.912 61.5673 79.222L68.8123 61.642C69.0623 61.062 69.4723 60.772 70.0423 60.772H70.1173C70.6873 60.802 71.0773 61.092 71.2873 61.642L78.6073 79.222C78.8873 79.912 78.6873 80.397 78.0073 80.677C77.3173 80.947 76.8373 80.747 76.5673 80.077L74.8123 75.877H65.3173L63.6223 80.077C63.3423 80.757 62.8673 80.957 62.1973 80.677ZM66.1873 73.672H73.9123L69.9973 64.267L66.1873 73.672ZM83.9297 80.782C83.1897 80.782 82.8197 80.412 82.8197 79.672V61.882C82.8197 61.142 83.1897 60.772 83.9297 60.772C84.6597 60.772 85.0247 61.142 85.0247 61.882V69.502L93.0947 61.192C93.6047 60.652 94.1197 60.642 94.6397 61.162C95.1797 61.672 95.1897 62.192 94.6697 62.722L88.1747 69.412L95.8247 78.907C96.2747 79.487 96.2247 80.002 95.6747 80.452C95.1047 80.922 94.5897 80.872 94.1297 80.302L86.6297 71.017L85.0247 72.667V79.672C85.0247 80.412 84.6597 80.782 83.9297 80.782ZM101.186 80.782C100.446 80.782 100.076 80.412 100.076 79.672V61.882C100.076 61.142 100.446 60.772 101.186 60.772H112.106C112.846 60.772 113.216 61.142 113.216 61.882C113.216 62.612 112.846 62.977 112.106 62.977H102.281V69.577H108.566C109.306 69.577 109.676 69.942 109.676 70.672C109.676 71.412 109.306 71.782 108.566 71.782H102.281V78.577H112.106C112.846 78.577 113.216 78.942 113.216 79.672C113.216 80.412 112.846 80.782 112.106 80.782H101.186ZM130.822 80.827C130.532 81.017 130.257 81.077 129.997 81.007C129.737 80.937 129.512 80.757 129.322 80.467L124.582 72.697H119.947V79.672C119.947 80.412 119.582 80.782 118.852 80.782C118.112 80.782 117.742 80.412 117.742 79.672V61.882C117.742 61.142 118.112 60.772 118.852 60.772H125.872C127.662 60.772 129.027 61.247 129.967 62.197C130.907 63.137 131.377 64.502 131.377 66.292V67.192C131.377 68.752 131.012 69.992 130.282 70.912C129.562 71.832 128.512 72.397 127.132 72.607L131.227 79.327C131.577 79.947 131.442 80.447 130.822 80.827ZM119.947 70.492H125.872C127.052 70.492 127.897 70.237 128.407 69.727C128.917 69.217 129.172 68.372 129.172 67.192V66.292C129.172 65.112 128.917 64.267 128.407 63.757C127.897 63.237 127.052 62.977 125.872 62.977H119.947V70.492ZM137.279 80.782C136.979 80.782 136.719 80.672 136.499 80.452C136.279 80.232 136.169 79.972 136.169 79.672V61.882C136.169 61.582 136.279 61.322 136.499 61.102C136.719 60.882 136.979 60.772 137.279 60.772C137.579 60.772 137.834 60.882 138.044 61.102C138.264 61.322 138.374 61.582 138.374 61.882V69.547H150.734V61.882C150.734 61.582 150.839 61.322 151.049 61.102C151.259 60.882 151.519 60.772 151.829 60.772C152.129 60.772 152.389 60.882 152.609 61.102C152.829 61.322 152.939 61.582 152.939 61.882V79.672C152.939 79.972 152.829 80.232 152.609 80.452C152.389 80.672 152.129 80.782 151.829 80.782C151.519 80.782 151.259 80.672 151.049 80.452C150.839 80.232 150.734 79.972 150.734 79.672V71.752H138.374V79.672C138.374 79.972 138.264 80.232 138.044 80.452C137.834 80.672 137.579 80.782 137.279 80.782ZM157.822 80.677C157.122 80.397 156.912 79.912 157.192 79.222L164.437 61.642C164.687 61.062 165.097 60.772 165.667 60.772H165.742C166.312 60.802 166.702 61.092 166.912 61.642L174.232 79.222C174.512 79.912 174.312 80.397 173.632 80.677C172.942 80.947 172.462 80.747 172.192 80.077L170.437 75.877H160.942L159.247 80.077C158.967 80.757 158.492 80.957 157.822 80.677ZM161.812 73.672H169.537L165.622 64.267L161.812 73.672ZM183.866 80.782C183.406 80.782 183.051 80.502 182.801 79.942L175.271 62.347C175.121 62.017 175.091 61.732 175.181 61.492C175.281 61.242 175.501 61.047 175.841 60.907C176.521 60.607 177.001 60.797 177.281 61.477L184.451 78.217H183.686L190.721 61.477C190.991 60.797 191.476 60.607 192.176 60.907C192.496 61.047 192.701 61.242 192.791 61.492C192.891 61.732 192.876 62.017 192.746 62.347L185.156 79.942C184.896 80.502 184.511 80.782 184.001 80.782H183.866ZM197.602 80.782C196.862 80.782 196.492 80.412 196.492 79.672V61.882C196.492 61.142 196.862 60.772 197.602 60.772H208.522C209.262 60.772 209.632 61.142 209.632 61.882C209.632 62.612 209.262 62.977 208.522 62.977H198.697V69.577H204.982C205.722 69.577 206.092 69.942 206.092 70.672C206.092 71.412 205.722 71.782 204.982 71.782H198.697V78.577H208.522C209.262 78.577 209.632 78.942 209.632 79.672C209.632 80.412 209.262 80.782 208.522 80.782H197.602ZM215.268 80.782C214.528 80.782 214.158 80.412 214.158 79.672V61.882C214.158 61.142 214.528 60.772 215.268 60.772C215.648 60.772 216.018 60.992 216.378 61.432L228.648 77.227H228.108V61.882C228.108 61.142 228.478 60.772 229.218 60.772C229.948 60.772 230.313 61.142 230.313 61.882V79.672C230.313 80.412 229.948 80.782 229.218 80.782C228.818 80.782 228.448 80.562 228.108 80.122L215.823 64.327H216.363V79.672C216.363 80.412 215.998 80.782 215.268 80.782Z" fill="#F3F3F3"/>
<defs>
<clipPath id="clip0_8_194">
<rect width="80" height="80" fill="white" transform="translate(0 0.781982)"/>
</clipPath>
</defs>
</svg>
