<svg width="234" height="86" viewBox="0 0 234 86" fill="none" xmlns="http://www.w3.org/2000/svg">
<g clip-path="url(#clip0_1_87)">
<path d="M9.31271 38.256C10.0474 38.256 10.6431 37.6604 10.6431 36.9257C10.6431 36.191 10.0474 35.5953 9.31271 35.5953C8.57798 35.5953 7.98236 36.191 7.98236 36.9257C7.98236 37.6604 8.57798 38.256 9.31271 38.256Z" fill="#735184"/>
<path d="M7.98238 43.5777C8.71711 43.5777 9.31273 42.9821 9.31273 42.2473C9.31273 41.5126 8.71711 40.917 7.98238 40.917C7.24765 40.917 6.65204 41.5126 6.65204 42.2473C6.65204 42.9821 7.24765 43.5777 7.98238 43.5777Z" fill="#735184"/>
<path d="M77.5621 40.3847C75.5665 37.4579 69.8459 36.1274 60.4 36.3936L32.1957 23.0896C31.5304 22.8235 30.8653 23.0896 30.4662 23.6217C30.2001 24.287 21.4195 37.5909 5.4547 28.2782C5.05558 28.1452 4.65646 28.1452 4.25734 28.2782C3.85822 28.4112 3.59209 28.8103 3.4591 29.2094C2.39473 35.0632 0.532124 44.7751 0.133005 45.8394C1.72257e-05 46.2385 1.72257e-05 46.6377 0.133005 47.0368C0.399136 47.3029 0.798256 47.5689 1.19737 47.5689C5.05558 47.835 25.2775 49.2984 44.0361 49.2984C59.8679 49.2984 74.7683 48.234 77.8283 44.5089C77.9612 44.3759 78.0944 44.2428 78.0944 44.1098C78.2274 43.8438 78.7595 42.2474 77.5621 40.3847ZM3.05998 45.0412C3.72523 41.8482 5.05558 34.9302 5.72083 31.6041C18.6256 38.123 28.2045 31.4711 32.0627 26.1494L59.4688 39.0544C59.7349 39.1874 59.8679 39.1874 60.134 39.1874C71.7085 38.7883 74.6353 41.05 75.3005 41.9812C75.6997 42.3803 75.6997 42.7795 75.6997 43.0456C70.5111 47.968 29.2687 46.9036 3.05998 45.0412Z" fill="#53377A"/>
<path d="M79.5577 44.7751L78.2273 41.7151C77.9612 41.183 77.4291 40.9169 76.897 40.9169C76.0988 40.9169 75.5667 41.449 75.5667 42.2472C75.5667 42.5133 75.5667 42.7793 75.6996 42.9125L76.897 45.7063C77.4291 47.1698 77.03 48.8992 75.8326 49.6975C73.4379 51.294 67.4511 54.2208 54.1472 54.2208C35.7877 54.2208 8.91376 54.2208 2.66085 54.2208V46.2384C2.66085 45.4402 2.12874 44.9081 1.3305 44.9081C0.532263 44.9081 0 45.4403 0 46.2386V55.5513C0 55.9504 0.132988 56.2165 0.399119 56.4825C0.66525 56.7485 0.931226 56.8816 1.33035 56.8816C1.33035 56.8816 33.2599 56.8816 54.4132 57.0146C67.7171 57.0146 74.3691 54.2208 77.5621 51.9591C79.6908 50.3627 80.6221 47.4359 79.5577 44.7751Z" fill="#53377A"/>
<path d="M60.267 36.5266C59.6017 36.3936 58.9366 36.9257 58.8035 37.591L57.207 47.3028C57.207 47.3028 57.207 47.4358 57.207 47.569C57.207 48.3672 57.7391 48.8993 58.5374 48.8993C59.2026 48.8993 59.7347 48.3672 59.8677 47.702L61.3312 37.9901C61.4643 37.3249 60.9322 36.6598 60.267 36.5266Z" fill="#53377A"/>
<path d="M37.9163 23.7548C37.2511 23.3557 36.4528 23.6218 36.1868 24.2869L32.1956 30.9389C31.7965 31.6042 31.9295 32.4024 32.5948 32.8015C32.7278 32.9345 32.9939 32.9345 33.26 32.9345C33.6591 32.9345 34.1912 32.6684 34.4574 32.2693L38.4486 25.6172C38.7145 24.9521 38.5816 24.1539 37.9163 23.7548Z" fill="#735184"/>
<path d="M43.2378 26.4157C42.5726 26.0165 41.7743 26.2827 41.5084 26.9478L37.5172 33.5998C37.1181 34.2651 37.2511 35.0633 37.9163 35.4624C38.0493 35.5954 38.3154 35.5954 38.5816 35.5954C38.9807 35.5954 39.5128 35.3293 39.7789 34.9302L43.7701 28.2781C44.0361 27.613 43.9031 26.8148 43.2378 26.4157Z" fill="#735184"/>
<path d="M48.5596 29.0764C47.8943 28.6773 47.0961 28.9434 46.8301 29.6085L42.8389 36.2606C42.4398 36.9258 42.5728 37.7241 43.238 38.1232C43.371 38.2562 43.6371 38.2562 43.9033 38.2562C44.3024 38.2562 44.8345 37.99 45.1006 37.5909L49.0918 30.9389C49.3578 30.2738 49.2247 29.4756 48.5596 29.0764Z" fill="#735184"/>
<path d="M53.8811 31.7372C53.2158 31.3381 52.4176 31.6042 52.1516 32.2693L48.1604 38.9213C47.7613 39.5866 47.8943 40.3848 48.5596 40.7839C48.6925 40.9169 48.9587 40.9169 49.2248 40.9169C49.6239 40.9169 50.156 40.6508 50.4222 40.2517L54.4133 33.5996C54.6793 32.9346 54.5463 32.1363 53.8811 31.7372Z" fill="#735184"/>
<path d="M4.92242 28.1451C3.85805 28.0121 2.66069 27.2139 2.66069 25.7504C2.66069 24.9522 2.12858 24.42 1.33035 24.42C0.532107 24.42 0 24.9522 0 25.7504C0 28.2781 1.86261 30.2737 4.39031 30.806C4.5233 30.806 4.5233 30.806 4.65644 30.806C5.32169 30.806 5.8538 30.2738 5.98679 29.7416C6.11978 28.9433 5.58767 28.2782 4.92242 28.1451Z" fill="#735184"/>
<path d="M56.2682 34.5125C55.6335 34.2594 54.872 34.5125 54.6183 35.145L53.6029 37.422C52.0799 40.8375 48.1456 42.482 44.7189 40.964L21.7471 31.097C21.1125 30.8439 20.351 31.097 20.0973 31.7295C19.8436 32.3621 20.0973 33.1211 20.7319 33.374L43.7036 43.241C44.8459 43.747 46.115 44 47.3843 44C50.9378 44 54.3646 41.976 55.8876 38.4339L56.9029 36.1569C57.1565 35.5245 56.9026 34.7655 56.2682 34.5125Z" fill="#53377A"/>
</g>
<path d="M8.055 79.985C6.325 79.985 4.995 79.625 4.065 78.905C3.145 78.175 2.595 77.045 2.415 75.515C2.385 75.145 2.465 74.865 2.655 74.675C2.855 74.475 3.135 74.375 3.495 74.375C3.855 74.375 4.12 74.465 4.29 74.645C4.47 74.825 4.585 75.095 4.635 75.455C4.755 76.335 5.07 76.945 5.58 77.285C6.1 77.615 6.925 77.78 8.055 77.78H12.375C13.715 77.78 14.63 77.535 15.12 77.045C15.62 76.545 15.87 75.64 15.87 74.33C15.87 73 15.615 72.085 15.105 71.585C14.605 71.075 13.695 70.82 12.375 70.82H8.535C6.685 70.82 5.315 70.375 4.425 69.485C3.545 68.595 3.105 67.23 3.105 65.39C3.105 63.55 3.54 62.19 4.41 61.31C5.29 60.43 6.655 59.99 8.505 59.99H12.285C13.905 59.99 15.15 60.335 16.02 61.025C16.9 61.705 17.43 62.76 17.61 64.19C17.65 64.56 17.57 64.845 17.37 65.045C17.18 65.235 16.9 65.33 16.53 65.33C16.18 65.33 15.915 65.24 15.735 65.06C15.555 64.87 15.445 64.6 15.405 64.25C15.285 63.48 14.985 62.945 14.505 62.645C14.035 62.345 13.295 62.195 12.285 62.195H8.505C7.265 62.195 6.42 62.425 5.97 62.885C5.53 63.335 5.31 64.17 5.31 65.39C5.31 66.61 5.535 67.455 5.985 67.925C6.445 68.385 7.295 68.615 8.535 68.615H12.375C14.315 68.615 15.75 69.08 16.68 70.01C17.61 70.94 18.075 72.38 18.075 74.33C18.075 76.27 17.61 77.7 16.68 78.62C15.75 79.53 14.315 79.985 12.375 79.985H8.055ZM24.6035 80C23.8635 80 23.4935 79.63 23.4935 78.89V61.1C23.4935 60.36 23.8635 59.99 24.6035 59.99C24.9835 59.99 25.3535 60.21 25.7135 60.65L37.9835 76.445H37.4435V61.1C37.4435 60.36 37.8135 59.99 38.5535 59.99C39.2835 59.99 39.6485 60.36 39.6485 61.1V78.89C39.6485 79.63 39.2835 80 38.5535 80C38.1535 80 37.7835 79.78 37.4435 79.34L25.1585 63.545H25.6985V78.89C25.6985 79.63 25.3335 80 24.6035 80ZM46.7813 80C46.0413 80 45.6713 79.63 45.6713 78.89V61.1C45.6713 60.36 46.0413 59.99 46.7813 59.99H57.7013C58.4413 59.99 58.8113 60.36 58.8113 61.1C58.8113 61.83 58.4413 62.195 57.7013 62.195H47.8763V68.795H54.1613C54.9013 68.795 55.2713 69.16 55.2713 69.89C55.2713 70.63 54.9013 71 54.1613 71H47.8763V77.795H57.7013C58.4413 77.795 58.8113 78.16 58.8113 78.89C58.8113 79.63 58.4413 80 57.7013 80H46.7813ZM62.1973 79.895C61.4973 79.615 61.2873 79.13 61.5673 78.44L68.8123 60.86C69.0623 60.28 69.4723 59.99 70.0423 59.99H70.1173C70.6873 60.02 71.0773 60.31 71.2873 60.86L78.6073 78.44C78.8873 79.13 78.6873 79.615 78.0073 79.895C77.3173 80.165 76.8373 79.965 76.5673 79.295L74.8123 75.095H65.3173L63.6223 79.295C63.3423 79.975 62.8673 80.175 62.1973 79.895ZM66.1873 72.89H73.9123L69.9973 63.485L66.1873 72.89ZM83.9297 80C83.1897 80 82.8197 79.63 82.8197 78.89V61.1C82.8197 60.36 83.1897 59.99 83.9297 59.99C84.6597 59.99 85.0247 60.36 85.0247 61.1V68.72L93.0947 60.41C93.6047 59.87 94.1197 59.86 94.6397 60.38C95.1797 60.89 95.1897 61.41 94.6697 61.94L88.1747 68.63L95.8247 78.125C96.2747 78.705 96.2247 79.22 95.6747 79.67C95.1047 80.14 94.5897 80.09 94.1297 79.52L86.6297 70.235L85.0247 71.885V78.89C85.0247 79.63 84.6597 80 83.9297 80ZM101.186 80C100.446 80 100.076 79.63 100.076 78.89V61.1C100.076 60.36 100.446 59.99 101.186 59.99H112.106C112.846 59.99 113.216 60.36 113.216 61.1C113.216 61.83 112.846 62.195 112.106 62.195H102.281V68.795H108.566C109.306 68.795 109.676 69.16 109.676 69.89C109.676 70.63 109.306 71 108.566 71H102.281V77.795H112.106C112.846 77.795 113.216 78.16 113.216 78.89C113.216 79.63 112.846 80 112.106 80H101.186ZM130.822 80.045C130.532 80.235 130.257 80.295 129.997 80.225C129.737 80.155 129.512 79.975 129.322 79.685L124.582 71.915H119.947V78.89C119.947 79.63 119.582 80 118.852 80C118.112 80 117.742 79.63 117.742 78.89V61.1C117.742 60.36 118.112 59.99 118.852 59.99H125.872C127.662 59.99 129.027 60.465 129.967 61.415C130.907 62.355 131.377 63.72 131.377 65.51V66.41C131.377 67.97 131.012 69.21 130.282 70.13C129.562 71.05 128.512 71.615 127.132 71.825L131.227 78.545C131.577 79.165 131.442 79.665 130.822 80.045ZM119.947 69.71H125.872C127.052 69.71 127.897 69.455 128.407 68.945C128.917 68.435 129.172 67.59 129.172 66.41V65.51C129.172 64.33 128.917 63.485 128.407 62.975C127.897 62.455 127.052 62.195 125.872 62.195H119.947V69.71ZM137.279 80C136.979 80 136.719 79.89 136.499 79.67C136.279 79.45 136.169 79.19 136.169 78.89V61.1C136.169 60.8 136.279 60.54 136.499 60.32C136.719 60.1 136.979 59.99 137.279 59.99C137.579 59.99 137.834 60.1 138.044 60.32C138.264 60.54 138.374 60.8 138.374 61.1V68.765H150.734V61.1C150.734 60.8 150.839 60.54 151.049 60.32C151.259 60.1 151.519 59.99 151.829 59.99C152.129 59.99 152.389 60.1 152.609 60.32C152.829 60.54 152.939 60.8 152.939 61.1V78.89C152.939 79.19 152.829 79.45 152.609 79.67C152.389 79.89 152.129 80 151.829 80C151.519 80 151.259 79.89 151.049 79.67C150.839 79.45 150.734 79.19 150.734 78.89V70.97H138.374V78.89C138.374 79.19 138.264 79.45 138.044 79.67C137.834 79.89 137.579 80 137.279 80ZM157.822 79.895C157.122 79.615 156.912 79.13 157.192 78.44L164.437 60.86C164.687 60.28 165.097 59.99 165.667 59.99H165.742C166.312 60.02 166.702 60.31 166.912 60.86L174.232 78.44C174.512 79.13 174.312 79.615 173.632 79.895C172.942 80.165 172.462 79.965 172.192 79.295L170.437 75.095H160.942L159.247 79.295C158.967 79.975 158.492 80.175 157.822 79.895ZM161.812 72.89H169.537L165.622 63.485L161.812 72.89ZM183.866 80C183.406 80 183.051 79.72 182.801 79.16L175.271 61.565C175.121 61.235 175.091 60.95 175.181 60.71C175.281 60.46 175.501 60.265 175.841 60.125C176.521 59.825 177.001 60.015 177.281 60.695L184.451 77.435H183.686L190.721 60.695C190.991 60.015 191.476 59.825 192.176 60.125C192.496 60.265 192.701 60.46 192.791 60.71C192.891 60.95 192.876 61.235 192.746 61.565L185.156 79.16C184.896 79.72 184.511 80 184.001 80H183.866ZM197.602 80C196.862 80 196.492 79.63 196.492 78.89V61.1C196.492 60.36 196.862 59.99 197.602 59.99H208.522C209.262 59.99 209.632 60.36 209.632 61.1C209.632 61.83 209.262 62.195 208.522 62.195H198.697V68.795H204.982C205.722 68.795 206.092 69.16 206.092 69.89C206.092 70.63 205.722 71 204.982 71H198.697V77.795H208.522C209.262 77.795 209.632 78.16 209.632 78.89C209.632 79.63 209.262 80 208.522 80H197.602ZM215.268 80C214.528 80 214.158 79.63 214.158 78.89V61.1C214.158 60.36 214.528 59.99 215.268 59.99C215.648 59.99 216.018 60.21 216.378 60.65L228.648 76.445H228.108V61.1C228.108 60.36 228.478 59.99 229.218 59.99C229.948 59.99 230.313 60.36 230.313 61.1V78.89C230.313 79.63 229.948 80 229.218 80C228.818 80 228.448 79.78 228.108 79.34L215.823 63.545H216.363V78.89C216.363 79.63 215.998 80 215.268 80Z" fill="#333333"/>
<defs>
<clipPath id="clip0_1_87">
<rect width="80" height="80" fill="white"/>
</clipPath>
</defs>
</svg>
