<svg width="46" height="46" viewBox="0 0 46 46" fill="none" xmlns="http://www.w3.org/2000/svg">
<path fill-rule="evenodd" clip-rule="evenodd" d="M9.0117 20.041C9.0117 17.1158 10.1737 14.3105 12.2421 12.2421C14.3105 10.1737 17.1158 9.0117 20.041 9.0117C22.9662 9.0117 25.7715 10.1737 27.8399 12.2421C29.9083 14.3105 31.0703 17.1158 31.0703 20.041C31.0703 22.9662 29.9083 25.7715 27.8399 27.8399C25.7715 29.9083 22.9662 31.0703 20.041 31.0703C17.1158 31.0703 14.3105 29.9083 12.2421 27.8399C10.1737 25.7715 9.0117 22.9662 9.0117 20.041ZM20.041 4.59998C17.5943 4.59998 15.1827 5.18138 13.0048 6.29628C10.8269 7.41117 8.94518 9.02764 7.51459 11.0125C6.084 12.9973 5.14555 15.2937 4.77658 17.7124C4.4076 20.131 4.61866 22.6028 5.39236 24.9239C6.16606 27.245 7.48026 29.349 9.22665 31.0626C10.973 32.7761 13.1016 34.0502 15.437 34.7797C17.7724 35.5092 20.2477 35.6733 22.6589 35.2585C25.0701 34.8437 27.3483 33.8618 29.3056 32.3938C29.3683 32.4773 29.4369 32.5561 29.5108 32.6298L36.1283 39.2474C36.5444 39.6492 37.1016 39.8716 37.6799 39.8666C38.2583 39.8615 38.8116 39.6295 39.2206 39.2206C39.6295 38.8116 39.8615 38.2583 39.8666 37.6799C39.8716 37.1016 39.6492 36.5444 39.2474 36.1283L32.6298 29.5108C32.5561 29.4369 32.4773 29.3683 32.3938 29.3056C34.1144 27.0115 35.1621 24.2837 35.4196 21.4277C35.6772 18.5717 35.1343 15.7004 33.8519 13.1356C32.5695 10.5707 30.5981 8.41366 28.1588 6.90608C25.7195 5.3985 22.9086 4.59998 20.041 4.59998Z" fill="#333333"/>
</svg>
