<svg width="52" height="52" viewBox="0 0 52 52" fill="none" xmlns="http://www.w3.org/2000/svg">
<path d="M26 0.740601C20.8578 0.740601 15.8308 2.22235 11.5552 4.99847C7.27951 7.77459 3.94703 11.7204 1.97915 16.3369C0.011276 20.9533 -0.503623 26.0335 0.499587 30.9342C1.5028 35.8352 3.97907 40.3368 7.61524 43.8704C11.2514 47.4036 15.8841 49.8098 20.9277 50.7847C25.9711 51.7596 31.199 51.259 35.9499 49.3468C40.7007 47.4346 44.7613 44.1966 47.6184 40.0418C50.4751 35.887 52 31.0024 52 26.0053C52 19.3047 49.2606 12.8785 44.3849 8.14049C39.5089 3.4024 32.8955 0.740601 26 0.740601ZM38.7725 18.0469L34.515 37.5955C34.19 38.9851 33.345 39.3009 32.1425 38.6693L25.6425 33.9953L22.3925 36.9323C22.2394 37.1266 22.0428 37.2845 21.8176 37.3941C21.5924 37.5033 21.3444 37.5614 21.0925 37.564L21.5475 31.2478L33.5725 20.6682C34.125 20.226 33.5725 19.9734 32.7925 20.4155L18.0375 29.4161L11.5375 27.4581C10.14 27.0475 10.1075 26.1001 11.83 25.4685L36.8875 15.9942C38.1225 15.6468 39.1625 16.3416 38.7725 18.0469Z" fill="#F3F3F3"/>
</svg>
