<svg width="52" height="30" viewBox="0 0 52 30" fill="none" xmlns="http://www.w3.org/2000/svg">
<path d="M31.4876 14.452C30.5367 14.1074 30.5367 12.7913 30.4778 11.8748C30.2401 8.61031 31.4286 3.62648 30.0024 1.50758C28.9926 0.246497 24.1185 0.361974 21.1481 0.534272C20.3151 0.649749 19.3053 0.820216 18.5922 1.16481C17.8791 1.50941 17.1659 2.08129 17.1659 2.59636C17.1659 3.34054 18.9497 3.2269 19.602 4.2002C20.3151 5.23216 20.3151 7.46471 20.3151 9.29767C20.3151 11.4166 19.9576 14.2247 19.0676 14.3383C17.7003 14.3951 16.9282 13.0772 16.2151 12.1039C14.7888 10.2142 13.3626 7.86429 12.2919 5.57309C11.7575 4.37067 11.459 3.05276 10.6869 2.5377C9.49833 1.73486 7.35893 1.67804 5.27848 1.73486C3.37679 1.79169 0.642157 1.56257 0.107782 2.65135C-0.308689 3.85377 0.583204 4.99937 1.05863 5.97451C3.49469 11.072 6.10952 15.5407 9.31957 19.7786C12.2919 23.7304 15.0836 26.8813 20.551 28.542C22.097 29.0002 28.8708 30.3181 30.2382 28.542C30.7136 27.8546 30.5957 26.3076 30.8334 25.162C31.0711 24.0164 31.3678 22.8708 32.4974 22.8139C33.4482 22.7571 33.9826 23.5581 34.5778 24.1318C35.232 24.7624 35.7664 25.2774 36.2418 25.8512C37.3714 26.9399 38.56 28.4283 39.9862 29.002C41.9469 29.8049 44.9782 29.5757 47.8307 29.4603C50.1489 29.4034 51.8128 28.9452 51.9916 27.6273C52.1114 26.5953 50.921 25.107 50.2078 24.2473C48.424 22.1284 47.593 21.4979 45.5715 19.5494C44.6796 18.6898 43.55 17.7733 43.55 16.7432C43.491 16.1126 44.0254 15.5407 44.5008 14.9102C46.5813 11.9316 48.6617 9.81273 50.5634 6.71869C51.0978 5.80221 52.3472 3.6833 51.8718 2.65135C51.3374 1.50574 48.3651 1.84851 46.5223 1.84851C44.1452 1.84851 41.055 1.67621 40.4598 2.13445C39.3301 2.87863 38.8547 4.08289 38.3204 5.22849C37.1318 7.86429 35.5268 10.5551 33.8628 12.5603C33.2676 13.2477 32.1399 14.6792 31.4857 14.4501L31.4876 14.452Z" fill="#F3F3F3"/>
</svg>
