<svg width="52" height="52" viewBox="0 0 52 52" fill="none" xmlns="http://www.w3.org/2000/svg">
<g clip-path="url(#clip0_8_140)">
<path fill-rule="evenodd" clip-rule="evenodd" d="M41.1346 36.7202C40.508 38.4939 38.0172 39.9613 36.0308 40.3904C34.671 40.6791 32.8978 40.9075 26.923 38.4315C20.2124 35.6513 10.894 25.7479 10.894 19.1575C10.894 15.8025 12.8284 11.8958 16.211 11.8958C17.8386 11.8958 18.1974 11.9275 18.733 13.2123C19.3596 14.726 20.8884 18.4553 21.0704 18.8376C21.8218 20.4059 20.306 21.3239 19.2062 22.6894C18.8552 23.1003 18.4574 23.5447 18.902 24.3093C19.344 25.0583 20.8728 27.5499 23.1192 29.5499C26.0208 32.1351 28.3738 32.9604 29.2162 33.3115C29.8428 33.5716 30.5916 33.511 31.0492 33.0221C31.629 32.3953 32.3492 31.3554 33.0824 30.3307C33.5998 29.5972 34.2576 29.5056 34.9466 29.7657C35.412 29.927 41.327 32.6739 41.5766 33.1135C41.7612 33.4334 41.7612 34.9465 41.1346 36.7202ZM26.0052 0.00537109H25.9922C11.6584 0.00537109 0 11.6673 0 26.0054C0 31.6907 1.83302 36.9653 4.95042 41.2436L1.71081 50.9047L11.7026 47.7118C15.8132 50.4322 20.7194 52.0054 26.0052 52.0054C40.339 52.0054 52 40.3435 52 26.0054C52 11.6673 40.339 0.00537109 26.0052 0.00537109Z" fill="#F3F3F3"/>
</g>
<defs>
<clipPath id="clip0_8_140">
<rect width="52" height="52" fill="white" transform="translate(0 0.00537109)"/>
</clipPath>
</defs>
</svg>
